<svg xmlns="http://www.w3.org/2000/svg" version="1.1" xmlns:xlink="http://www.w3.org/1999/xlink" xmlns:svgjs="http://svgjs.dev/svgjs" width="40px" height="40px"><svg xmlns="http://www.w3.org/2000/svg" viewBox="0 0 40 40" width="40px" height="40px"><path fill="#8bb7f0" d="M15.209 -1.079H24.791V41.079H15.209z" transform="rotate(-45.001 20.001 20)"></path><path fill="#4e7ab5" d="M8.483,2.414l29.103,29.103l-6.069,6.069L2.414,8.483L8.483,2.414 M8.483,1L1,8.483L31.517,39 L39,31.517L8.483,1L8.483,1z"></path><path fill="#f5ce85" d="M6.838 28.451L9.428 25.861 14.475 30.257 11.571 33.161 3.309 36.69z"></path><path fill="#967a44" d="M9.451,26.545l4.291,3.737l-2.457,2.457L4.259,35.74l3.001-7.004L9.451,26.545 M9.404,25.178 l-2.988,2.988L2.357,37.64l9.499-4.057l3.351-3.351L9.404,25.178L9.404,25.178z"></path><path fill="#36404d" d="M4.661 32.273L2.36 37.643 7.744 35.343z"></path><path fill="#f78f8f" d="M29.206,6.072l2.237-2.237c0.631-0.63,1.469-0.978,2.361-0.978c0.892,0,1.729,0.347,2.36,0.978 s0.978,1.469,0.978,2.361s-0.347,1.73-0.978,2.361l-2.237,2.237L29.206,6.072z"></path><path fill="#c74343" d="M33.804,3.357c0.758,0,1.471,0.295,2.007,0.831c1.107,1.107,1.107,2.908,0,4.014l-1.884,1.884 l-4.014-4.014l1.884-1.884C32.333,3.652,33.046,3.357,33.804,3.357 M33.804,2.357c-0.982,0-1.965,0.375-2.714,1.124l-2.591,2.591 l5.429,5.429l2.591-2.591c1.499-1.499,1.499-3.93,0-5.429C35.769,2.732,34.787,2.357,33.804,2.357L33.804,2.357z"></path><path fill="#ffeea3" d="M12.202,32.53c-0.066-0.153-0.157-0.308-0.282-0.454c-0.31-0.363-0.749-0.584-1.31-0.661 c-0.201-1.267-1.206-1.804-1.99-1.965c-0.132-0.864-0.649-1.342-1.201-1.582L29.035,6.241l4.722,4.721L12.202,32.53z"></path><path fill="#ba9b48" d="M29.035,6.948l4.014,4.014L12.287,31.737c-0.242-0.278-0.638-0.59-1.261-0.748 c-0.306-1.078-1.155-1.685-1.984-1.943c-0.151-0.546-0.447-0.968-0.821-1.272L29.035,6.948 M29.035,5.534L6.416,28.166 c0,0,0.007,0,0.021,0c0.197,0,1.715,0.054,1.715,1.731c0,0,1.993,0.062,1.993,1.99c1.982,0,1.71,1.697,1.71,1.697l22.607-22.621 L29.035,5.534L29.035,5.534z"></path><path fill="#d9e7f5" d="M28.831 5.381H33.729V12.058H28.831z" transform="rotate(-45.001 31.28 8.72)"></path><path fill="#788b9c" d="M30.651,5.335l4.014,4.014l-2.757,2.757l-4.014-4.014L30.651,5.335 M30.651,3.92L26.48,8.091 l5.429,5.429l4.171-4.171L30.651,3.92L30.651,3.92z"></path><path fill="none" stroke="#4e7ab5" stroke-miterlimit="10" d="M11.011 4.561L8.296 7.275M13.725 7.275L12.199 8.801M16.439 9.989L13.725 12.704M19.153 12.704L17.627 14.23M27.296 20.847L25.77 22.373M30.011 23.561L27.296 26.275M32.725 26.275L31.199 27.801M35.439 28.989L32.725 31.704"></path></svg><style>@media (prefers-color-scheme: light) { :root { filter: none; } }
@media (prefers-color-scheme: dark) { :root { filter: none; } }
</style></svg>